<svg width="100" height="100" viewBox="0 0 100 100" fill="none" xmlns="http://www.w3.org/2000/svg">
<path d="M31.4125 93.7501C69.15 93.7501 89.7937 62.4813 89.7937 35.4126C89.7937 34.5376 89.7938 33.6501 89.7563 32.7751C93.7754 29.8656 97.2441 26.2635 100 22.1376C96.2457 23.7929 92.2673 24.8838 88.1938 25.3751C92.4846 22.8103 95.6983 18.7749 97.2375 14.0188C93.2062 16.4071 88.7938 18.0836 84.1937 18.9751C81.1011 15.6815 77.0088 13.4995 72.5505 12.7673C68.0923 12.035 63.517 12.7933 59.5334 14.9247C55.5497 17.056 52.38 20.4415 50.5153 24.5567C48.6506 28.6719 48.1949 33.2871 49.2188 37.6876C41.0609 37.2785 33.0801 35.1592 25.794 31.4672C18.5079 27.7752 12.0793 22.5928 6.925 16.2563C4.30838 20.7756 3.50984 26.1213 4.69154 31.208C5.87324 36.2946 8.94659 40.7409 13.2875 43.6438C10.0346 43.5333 6.85326 42.6598 4 41.0938V41.3751C4.00561 46.1093 5.64567 50.6964 8.64296 54.3611C11.6403 58.0257 15.8109 60.543 20.45 61.4876C18.6891 61.9726 16.8702 62.2145 15.0438 62.2063C13.7561 62.2102 12.4711 62.0909 11.2062 61.8501C12.5174 65.9254 15.0705 69.4886 18.5078 72.0405C21.9451 74.5925 26.0946 76.0054 30.375 76.0813C23.1035 81.7926 14.1213 84.8901 4.875 84.8751C3.24575 84.8819 1.61764 84.788 0 84.5938C9.38447 90.5767 20.2831 93.7535 31.4125 93.7501Z" fill="black"/>
</svg>
