<svg width="100" height="71" viewBox="0 0 100 71" fill="none" xmlns="http://www.w3.org/2000/svg">
<path d="M50.3187 0H50.875C56.0125 0.01875 82.0437 0.206251 89.0625 2.09375C91.1843 2.6698 93.1178 3.79264 94.6697 5.35005C96.2217 6.90746 97.3377 8.8449 97.9062 10.9688C98.5375 13.3438 98.9813 16.4875 99.2813 19.7313L99.3438 20.3813L99.4812 22.0063L99.5313 22.6563C99.9375 28.3688 99.9875 33.7188 99.9937 34.8875V35.3563C99.9875 36.5688 99.9312 42.2813 99.4812 48.2313L99.4313 48.8875L99.375 49.5375C99.0625 53.1125 98.6 56.6625 97.9062 59.275C97.3394 61.3997 96.224 63.3381 94.6718 64.8957C93.1196 66.4534 91.1852 67.5757 89.0625 68.15C81.8125 70.1 54.2562 70.2375 50.4375 70.2438H49.55C47.6187 70.2438 39.6312 70.2063 31.2562 69.9188L30.1937 69.8813L29.65 69.8563L28.5812 69.8125L27.5125 69.7688C20.575 69.4625 13.9688 68.9688 10.925 68.1438C8.80306 67.57 6.86916 66.4487 5.31703 64.8921C3.7649 63.3356 2.64904 61.3986 2.08125 59.275C1.3875 56.6688 0.925 53.1125 0.6125 49.5375L0.5625 48.8813L0.5125 48.2313C0.204047 43.9962 0.0331242 39.7523 0 35.5063L0 34.7375C0.0125 33.3938 0.0625 28.75 0.4 23.625L0.44375 22.9813L0.4625 22.6563L0.5125 22.0063L0.65 20.3813L0.7125 19.7313C1.0125 16.4875 1.45625 13.3375 2.0875 10.9688C2.65434 8.84405 3.76976 6.90569 5.32196 5.34801C6.87415 3.79034 8.80856 2.66808 10.9312 2.09375C13.975 1.28125 20.5812 0.78125 27.5187 0.46875L28.5812 0.425L29.6562 0.387501L30.1937 0.368751L31.2625 0.325001C37.2107 0.133592 43.1613 0.0273304 49.1125 0.00625029H50.3187V0ZM40 20.0625V50.175L65.9813 35.125L40 20.0625Z" fill="white"/>
</svg>
